<?xml version="1.0" encoding="utf-8"?>
<!-- Generator: Adobe Illustrator 26.0.3, SVG Export Plug-In . SVG Version: 6.00 Build 0)  -->
<svg version="1.1" id="Layer_1" xmlns="http://www.w3.org/2000/svg" xmlns:xlink="http://www.w3.org/1999/xlink" x="0px" y="0px"
	 viewBox="0 0 1000 1000" style="enable-background:new 0 0 1000 1000;" xml:space="preserve">
<style type="text/css">
	.st0{fill:url(#SVGID_1_);}
	.st1{fill:#FFFFFF;}
</style>
<g>
	<g>
		<g>
			
				<linearGradient id="SVGID_1_" gradientUnits="userSpaceOnUse" x1="515.9434" y1="728.5535" x2="180.7611" y2="307.2262" gradientTransform="matrix(1 0 0 -1 0 1000.7244)">
				<stop  offset="0" style="stop-color:#45B0FF"/>
				<stop  offset="1" style="stop-color:#0059ED"/>
			</linearGradient>
			<path class="st0" d="M418.31,338.9c-3.76,4.86-6.95,9-10.17,13.12c-3.59,4.59-4.66,9.68-4.64,15.59
				c0.2,59.52,0.1,119.04,0.14,178.56c0.01,12.69,1.93,25.03,7.9,36.4c9.19,17.51,23.48,29.05,42.13,35.37
				c14.01,4.75,28.37,7,43.18,6.38c2.91-0.12,5.85,0.17,8.77,0.26c0.03,0.45,0.07,0.91,0.1,1.36c-4.56,0.96-9.08,2.33-13.69,2.82
				c-18.54,1.99-37.04,2.69-55.49-1.4c-29.94-6.66-54.59-22.14-74.26-45.23c-11.58-13.59-22.32-27.98-32.6-42.6
				c-27.16-38.61-51.92-78.76-75.55-119.61c-2.28-3.95-4.35-8.01-7.13-13.14c-0.76,2.43-1.45,3.62-1.45,4.79
				c0.01,42.31,0.31,84.62,0.01,126.93c-0.08,10.65,3.4,18.95,11.21,25.8c0.86,0.76,1.64,1.63,2.36,2.53
				c0.25,0.31,0.18,0.86,0.37,1.94c-22.44,0-44.76,0-67.91,0c0.68-1.55,0.96-3.11,1.87-4.1c7.61-8.32,10.48-17.84,10.39-29.28
				c-0.43-56.27-0.25-112.53-0.12-168.8c0.02-8.43-3.11-15.33-8.28-21.6c-1.3-1.58-2.71-3.06-4.55-5.12
				c1.82-0.65,2.99-1.43,4.17-1.43c16.27-0.1,32.55,0.06,48.83-0.19c4.3-0.06,6.35,2.39,8.23,5.34c5.38,8.42,10.7,16.88,15.92,25.41
				c20.15,32.9,40.2,65.86,60.41,98.73c7.3,11.88,14.96,23.54,22.42,35.32c2.18,3.44,4.24,6.96,6.91,11.34
				c0.7-2.35,1.39-3.6,1.38-4.85c-0.06-46.73-0.6-93.46,0.02-140.18c0.14-11.13-3.95-18.61-11.59-25.34
				c-1.46-1.29-2.84-2.67-5.45-5.12C368.43,338.9,393.03,338.9,418.31,338.9z"/>
			<path class="st1" d="M528.99,567.82c-1.77,0.54-2.8,1.14-3.81,1.12c-23.75-0.59-47.53,0.47-72.77-0.56
				c2.25-2.6,3.39-3.95,4.56-5.27c5.71-6.45,9.06-13.46,9.02-22.57c-0.29-57.87-0.3-115.74-0.03-173.61
				c0.04-9.33-3.31-16.6-9.26-23.2c-1.05-1.16-2.04-2.38-3.57-4.16c1.82-0.58,2.98-1.27,4.14-1.27c21.85-0.06,43.7-0.09,65.55,0.01
				c21.38,0.1,42.75,0.4,64.13,0.48c3.16,0.01,5.53,0.94,6.82,3.76c6.48,14.18,12.38,28.56,14.41,44.19
				c0.08,0.61-0.37,1.28-0.65,2.2c-0.94-0.2-1.96-0.16-2.64-0.61c-14.04-9.23-29.68-12.77-46.24-13.13
				c-12.29-0.27-24.57-0.69-36.86-0.98c-2.05-0.05-4.11,0.17-6,0.25c-1.83,4.61-2.57,59.01-0.97,71.16
				c13.77,0.81,26.86-2.62,39.57-7.64c12.74-5.02,24.74-11.49,35.41-21.67c0.24,1.98,0.62,2.8,0.35,3.2
				c-9.92,15.1-21.27,28.76-37.71,37.29c-8.98,4.66-18.51,7.4-28.55,8.49c-2.07,0.23-4.32,0.1-6.16,0.88
				c-1.43,0.61-3.21,2.29-3.36,3.66c-0.44,4.06-0.16,8.21-0.16,13.31c16.4-3.16,31.63-7.02,44.68-17.11
				c0.34,0.31,0.68,0.62,1.02,0.93c-0.72,1.46-1.16,3.16-2.2,4.35c-10.36,11.98-22.32,21.6-38.05,25.67
				c-4.93,1.27-5.48,2.1-5.5,7.29c-0.05,12.09,0.14,24.17-0.15,36.25c-0.25,10.17,4.13,17.81,11.78,23.99
				C526.75,565.31,527.55,566.33,528.99,567.82z"/>
			<path class="st1" d="M750.37,568.93c-24.18,0-48.36,0-73.68,0c1.42-2.15,2.08-3.51,3.06-4.56c6.44-6.92,9.74-14.81,9.7-24.52
				c-0.22-50.43-0.07-100.85-0.17-151.29c-0.03-15.78,0.21-12.67-12.71-12.65c-9.52,0.01-19.06,0.28-28.53,1.04
				c-5.66,0.45-11.23,2.07-17.18,3.24c-0.26-1.05-0.86-2.16-0.73-3.16c1.47-11.62,4.52-22.76,10.32-33.04
				c1.75-3.1,4.05-4.45,7.87-4.43c35.1,0.17,70.21,0.39,105.3,0.03c20.32-0.21,46.6,15.47,54.23,41.89
				c2.17,7.51,1.4,15.15-1.27,22.6c-4.61,12.9-13.52,22.31-23.57,30.83c-0.48-0.26-0.95-0.52-1.43-0.79
				c0.48-1.25,0.77-2.61,1.45-3.75c4.21-7.07,7.2-14.39,7.64-22.84c0.53-10.11-3.85-17.54-11.44-23.35c-5-3.82-10.62-6.7-17.04-7.5
				c-5.52-0.68-11.05-1.84-16.57-1.8c-7.38,0.06-8.22,1.46-8.22,8.71c0.01,53.45,0.03,106.91-0.1,160.36
				c-0.02,8.15,3.97,14.07,9.34,19.46c1.4,1.41,2.97,2.68,4.46,4.02C750.86,567.95,750.62,568.44,750.37,568.93z"/>
		</g>
	</g>
	<g>
		<path class="st1" d="M667.89,643.59c-3.33,0.66-6.64,1.33-9.96,1.98c-1.44,0.29-2.88,0.61-4.33,0.81c-0.37,0.05-1-0.17-1.17-0.46
			c-4.37-7.57-8.85-15.09-11.81-23.38c-0.2-0.55-0.36-1.11-0.56-1.74c-1.17,6.94-2.57,24.6,1,28.41c-1.07,0.14-2.02,0.29-2.97,0.37
			c-4.17,0.35-8.34,0.63-12.5-0.18c-1.25-0.24-1.69-0.78-1.73-2.14c-0.44-15.35-0.75-30.71-1.54-46.05
			c-0.54-10.46-1.72-20.89-4.32-31.09c-0.33-1.28-0.65-2.59-1.19-3.79c-0.55-1.23-0.16-1.94,0.75-2.77
			c3.64-3.3,7.73-5.93,12.11-8.09c6.97-3.45,14.38-5.5,22.08-6.5c0.29-0.04,0.58,0,1.06,0c-0.98,1.84-1.99,3.56-2.85,5.35
			c-3.75,7.81-6.08,15.94-4.7,24.68c0.52,3.32,1.68,6.56,2.72,9.77c3.55,10.88,7.08,21.77,10.82,32.59
			c2.16,6.24,4.7,12.34,7.13,18.49C666.42,641.11,667.19,642.27,667.89,643.59z M642.29,606.38c-2.04-7.52-4.04-14.88-5.83-21.49
			c-0.71,6.17-1.5,13.13-2.31,20.19C636.57,605.46,639.42,605.92,642.29,606.38z"/>
		<path class="st1" d="M572.39,583.79c4.9-1.3,9.73-2.58,14.71-3.9c1.41,8.52,3.11,16.8,3.38,25.48c2.35-0.43,4.77-0.88,7.01-1.29
			c0-3.1,0.1-6.19-0.02-9.26c-0.21-5.71-0.54-11.41-0.86-17.11c-0.04-0.79,0.14-1.22,0.88-1.61c3.43-1.81,6.82-3.7,10.43-5.68
			c0.1,2.15,0.17,4.28,0.32,6.39c0.5,7.32,0.87,14.65,1.59,21.94c0.76,7.64,1.71,15.26,2.89,22.84c1.56,9.97,3.61,19.84,7.59,29.18
			c1.77,4.15,3.98,8,7.66,10.99c-3.4-0.29-6.83-0.4-10.2-0.92c-4.26-0.67-8.5-1.54-12.68-2.59c-2.54-0.64-2.64-1.14-2.7-3.79
			c-0.21-8.62-0.45-17.23-0.69-25.85c-0.01-0.54-0.08-1.08-0.14-1.62c-0.34-2.83-0.34-2.86-3.12-3.18
			c-1.61-0.19-3.24-0.25-4.86-0.38c-0.96-0.07-1.41,0.23-1.36,1.33c0.41,8.31,0.77,16.63,1.14,24.94c0.03,0.64,0,1.27,0,2.16
			c-1.57-0.63-3.1-1.17-4.58-1.84c-4.07-1.85-8.12-3.75-12.17-5.64c-0.35-0.17-0.67-0.42-1.02-0.6c-1.25-0.65-1.46-1.33-0.83-2.79
			c3.22-7.49,4.79-15.38,5.06-23.52c0.39-11.49-2.02-22.38-7.02-32.72C572.68,584.5,572.58,584.23,572.39,583.79z"/>
		<path class="st1" d="M514.7,615.4c4.07-2.99,8.07-6.07,12.21-8.95c5.75-3.99,12.28-6.34,18.8-8.72
			c6.14-2.24,12.17-4.79,17.77-8.22c0.87-0.54,1.7-1.15,2.77-1.88c0,4.59-0.66,9.1,0.62,13.49c-8.47,4.13-16.93,8.25-25.4,12.38
			c0.07,0.16,0.15,0.33,0.22,0.49c1.93-0.78,3.84-1.61,5.79-2.33c5.49-2.03,11.03-3.91,16.95-4.3c1.67-0.11,3.15-0.04,4.4,1.38
			c1.88,2.14,3.94,4.12,5.89,6.19c0.84,0.9,0.85,1.66-0.29,2.5c-4.79,3.55-8.81,7.87-11.86,12.99c-1.37,2.29-2.28,4.85-3.5,7.52
			c-4.02-0.88-8.37-1.84-12.88-2.83c0.39-3.35,1.59-6.43,3.53-9.07c1.92-2.62,4.28-4.94,6.4-7.34c-1.1,0.37-2.43,0.74-3.7,1.27
			c-4.94,2.08-9.51,4.72-13.08,8.85c-0.26,0.3-0.99,0.48-1.37,0.35c-4.95-1.67-9.73-3.73-14.12-6.6c-3.11-2.03-6.12-4.21-9.18-6.32
			C514.68,615.96,514.69,615.68,514.7,615.4z"/>
		<path class="st1" d="M757.59,614.63c-3.97-4.52-8.72-7.38-14.85-7.81c-0.27-2.05-0.56-4.07-0.76-6.11
			c-0.03-0.32,0.3-0.78,0.6-1.03c9.27-7.7,18.73-15.16,28.72-21.93c4.85-3.28,9.73-6.51,15.14-8.81c1.87-0.79,3.77-1.62,6.28-1.31
			c-0.99,1.11-1.79,1.99-2.58,2.89c-5.19,5.85-10.37,11.72-14.52,18.38c-1.01,1.61-1.78,3.38-2.53,5.14
			c-0.33,0.76-0.7,1.14-1.52,1.34c-2.84,0.7-5.66,1.51-8.48,2.28c-0.03,0.18-0.07,0.36-0.1,0.53c1.7,1.34,3.33,2.79,5.13,3.98
			c0.94,0.62,1.31,1.32,1.47,2.34c0.99,6.36,1.89,12.74,3.03,19.08c1.53,8.56,3.19,17.1,6.66,25.16c0.03,0.07-0.02,0.18-0.05,0.4
			c-2.42-1.85-4.79-3.66-7.16-5.46c-8.89-6.74-17.78-13.5-26.7-20.2c-0.84-0.63-1.28-1.26-1.23-2.29c0.11-2.5,0.04-5.01,0.33-7.49
			c0.21-1.82,0.46-1.77,2.23-1.34c3.29,0.79,6.6,1.51,9.91,2.24C756.9,614.69,757.25,614.63,757.59,614.63z"/>
		<path class="st1" d="M686.23,628.37c-0.82,2.84-1.58,5.33-2.26,7.84c-0.25,0.93-0.73,1.49-1.63,1.88
			c-2.65,1.16-5.25,2.42-8.05,3.73c-0.77-22.92-6.59-43.87-22.04-61.58c2.26,0.23,4.38,0.42,6.49,0.67
			c9.04,1.07,18.04,2.41,26.8,4.99c2.86,0.84,5.59,2.12,8.41,3.12c1.11,0.4,1.32,1.1,1.23,2.16c-0.31,3.56-1.91,6.62-3.91,9.43
			c-2.24,3.16-4.77,6.11-7.1,9.07c6.45,3.9,13.1,7.91,20,12.08c-2.8,2.08-5.23,3.87-7.66,5.67c-0.83,0.61-1.76,1.13-2.47,1.86
			c-1.02,1.05-2.04,1.1-3.32,0.59C689.28,629.32,687.79,628.89,686.23,628.37z M683.94,593.58c-3.45-0.96-6.98-1.95-10.79-3.02
			c2.28,3.81,4.9,7.07,5.72,11.39C680.63,599.06,682.27,596.34,683.94,593.58z"/>
		<path class="st1" d="M723.82,608.47c4.62,3.01,9.69,5.17,13.27,9.64c-0.84,0-1.69,0.06-2.52-0.01c-4.61-0.36-9.22-0.7-13.82-1.17
			c-0.67-0.07-1.48-0.7-1.87-1.3c-1.01-1.55-1.83-3.24-2.96-5.3c-0.29,2.61-0.54,4.8-0.78,6.94c-2.62,0.34-5.18,0.68-7.94,1.04
			c-0.72-8.54-0.52-17.48-3.27-26.31c4.35,1.31,8.6,2.56,12.81,3.92c0.36,0.12,0.7,0.97,0.67,1.46c-0.1,1.95-0.35,3.9-0.59,6.27
			c1.85-1.1,3.4-1.93,4.83-2.9c1.97-1.34,3.94-2.14,6.46-1.66c2.45,0.47,4.98,0.47,7.93,0.72
			C731.78,602.84,727.83,605.63,723.82,608.47z"/>
	</g>
</g>
</svg>
